<?xml version="1.0" standalone="no"?>
<!DOCTYPE svg PUBLIC "-//W3C//DTD SVG 20010904//EN"
 "http://www.w3.org/TR/2001/REC-SVG-20010904/DTD/svg10.dtd">
<svg version="1.0" xmlns="http://www.w3.org/2000/svg"
 width="700.000000pt" height="700.000000pt" viewBox="0 0 700.000000 700.000000"
 preserveAspectRatio="xMidYMid meet">
<metadata>
Created by potrace 1.14, written by Peter Selinger 2001-2017
</metadata>
<g transform="translate(0.000000,700.000000) scale(0.100000,-0.100000)"
fill="#000000" stroke="none">
<path d="M1370 5124 c-165 -20 -213 -28 -294 -48 -389 -99 -645 -334 -738
-676 -20 -75 -23 -107 -22 -270 0 -158 4 -196 22 -265 65 -235 205 -397 450
-519 160 -80 304 -123 647 -191 300 -61 389 -86 512 -146 226 -109 322 -261
323 -509 0 -167 -45 -284 -150 -391 -145 -147 -370 -219 -687 -219 -323 0
-647 84 -983 256 -63 32 -118 60 -123 62 -4 2 -6 -105 -5 -239 l3 -242 115
-39 c242 -82 519 -145 737 -169 148 -15 524 -7 653 15 310 53 541 162 696 330
115 123 178 249 215 430 28 137 23 408 -10 531 -90 335 -340 563 -754 685 -55
17 -230 57 -391 91 -160 33 -322 69 -361 80 -256 74 -359 150 -416 308 -20 56
-24 84 -23 186 1 133 17 197 75 287 173 270 664 359 1199 217 117 -31 320
-104 400 -144 25 -12 55 -26 68 -29 l22 -7 0 226 0 225 -27 11 c-124 47 -442
119 -638 144 -117 16 -445 27 -515 19z"/>
<path d="M3080 5057 c0 -11 1266 -3338 1313 -3449 l16 -38 265 0 265 0 19 52
c17 44 1286 3376 1307 3431 7 16 -9 17 -238 17 l-244 0 -115 -302 c-62 -167
-312 -828 -553 -1471 -277 -735 -443 -1162 -448 -1155 -5 7 -255 668 -556
1468 l-547 1455 -242 3 c-198 2 -242 0 -242 -11z"/>
</g>
</svg>
